<!DOCTYPE svg PUBLIC "-//W3C//DTD SVG 1.1//EN" "http://www.w3.org/Graphics/SVG/1.1/DTD/svg11.dtd">
<!-- Uploaded to: SVG Repo, www.svgrepo.com, Transformed by: SVG Repo Mixer Tools -->
<svg width="800px" height="800px" viewBox="0 0 16 16" xmlns="http://www.w3.org/2000/svg" fill="none" transform="matrix(1, 0, 0, -1, 0, 0)rotate(270)">
<g id="SVGRepo_bgCarrier" stroke-width="0"/>
<g id="SVGRepo_tracerCarrier" stroke-linecap="round" stroke-linejoin="round"/>
<g id="SVGRepo_iconCarrier">
<path fill="#1f3d84" d="M1.702 2.98L1 3.312v9.376l.702.332 2.842-4.777L1.702 2.98z"/>
<path fill="#3767f6" d="M3.339 12.657l-1.637.363V2.98l1.637.353v9.324z"/>
<path fill="#1f3d84" d="M2.476 2.612l.863-.406 4.096 6.216-4.096 5.372-.863-.406V2.612z"/>
<path fill="#3767f6" d="M5.38 13.248l-2.041.546V2.206l2.04.548v10.494z"/>
<path fill="#1f3d84" d="M4.3 1.75l1.08-.512 6.043 7.864-6.043 5.66-1.08-.511V1.749z"/>
<path fill="#3767f6" d="M7.998 13.856l-2.618.906V1.238l2.618.908v11.71z"/>
<path fill="#1f3d84" d="M6.602.66L7.998 0l6.538 8.453L7.998 16l-1.396-.66V.66z"/>
<path fill="#3767f6" d="M15 12.686L7.998 16V0L15 3.314v9.372z"/>
</g>
</svg>