<?xml version="1.0" encoding="UTF-8"?>
<svg version="1.1" xmlns="http://www.w3.org/2000/svg" width="512" height="512">
<path d="M0 0 C0.77859375 -0.03287109 1.5571875 -0.06574219 2.359375 -0.09960938 C16.45380818 -0.22586244 27.57723625 8.91021001 38.64834595 16.55496216 C43.35875161 19.80712277 48.09338416 23.02375891 52.82421875 26.24609375 C53.80327682 26.91442734 54.7823349 27.58276093 55.7910614 28.27134705 C66.84191879 35.80410858 78.00960099 43.15765457 89.1875 50.5 C91.08595936 51.74801362 92.98439742 52.99605965 94.8828125 54.24414062 C97.44964988 55.93139828 100.01672383 57.61828593 102.58491516 59.30348206 C103.32815536 59.79122604 104.07139557 60.27897003 104.8371582 60.78149414 C105.7951104 61.40973839 105.7951104 61.40973839 106.77241516 62.05067444 C108.875 63.4375 108.875 63.4375 111.31912231 65.62988281 C116.79995817 68.41604532 121.7920229 67.5089804 127.80688477 67.01538086 C129.81501563 66.88075938 131.82315791 66.74625939 133.83158481 66.61612904 C135.25746159 66.5232829 136.68317802 66.42794521 138.1087333 66.33028686 C147.4173351 65.7004525 156.74001492 65.40169692 166.0635196 65.08190715 C175.08775069 64.77030143 184.079028 64.36647004 193.0793457 63.62817383 C228.65717642 60.78703448 261.46724357 63.0867754 289.80547714 87.09630585 C314.8281212 109.26405765 323.21285684 134.4352628 325.21896458 167.24038982 C326.7520322 195.08532227 325.63322453 223.02147752 324.38177878 250.8535406 C323.90166114 261.65800644 323.5856883 272.45872567 323.37670898 283.27172852 C323.36181366 284.04015141 323.34691833 284.80857431 323.33157163 285.60028275 C323.25754878 289.45816851 323.18593349 293.31609497 323.11519229 297.17404211 C322.6942443 319.90391108 322.12193511 342.62750893 321.21711159 365.34360123 C321.11985564 367.78571928 321.02555823 370.22795713 320.93436432 372.67030907 C320.80856374 375.98838875 320.66973882 379.30562644 320.52598572 382.62297058 C320.4902021 383.598855 320.45441848 384.57473941 320.4175505 385.58019608 C320.37594978 386.46269259 320.33434905 387.34518909 320.29148769 388.25442791 C320.2591807 389.01953361 320.22687371 389.78463931 320.19358772 390.57293004 C319.875 392.4375 319.875 392.4375 317.875 394.4375 C315.28559093 394.57957439 312.80965932 394.59529903 310.22390747 394.52082825 C309.02446985 394.49882474 309.02446985 394.49882474 307.80080116 394.47637671 C306.04095936 394.44299671 304.28120129 394.40497129 302.5215435 394.36299706 C298.65286275 394.27095869 294.78386353 394.20125588 290.91475368 394.12995565 C288.82680744 394.09125168 286.73888263 394.05137656 284.65097928 394.01042426 C271.15202503 393.74914327 257.65141834 393.63985156 244.15058351 393.52181017 C231.03623118 393.40608345 217.92670907 393.24467881 204.81542969 392.93237305 C137.02420602 388.50206918 137.02420602 388.50206918 78.5 417.05444336 C77.17650381 418.34139976 75.85830448 419.63383181 74.54614258 420.93234253 C69.43434587 425.96003875 63.61873607 429.575848 57.55859375 433.3671875 C55.78680427 434.5543122 54.0201784 435.74919399 52.25976562 436.953125 C51.44419189 437.50677734 50.62861816 438.06042969 49.78833008 438.63085938 C48.97130615 439.18580078 48.15428223 439.74074219 47.3125 440.3125 C40.84272112 444.70149511 34.37008729 449.08601299 27.875 453.4375 C27.28100403 453.83569946 26.68700806 454.23389893 26.07501221 454.64416504 C24.56746664 455.64904553 23.05167558 456.6415267 21.53515625 457.6328125 C20.37125366 458.39489014 20.37125366 458.39489014 19.18383789 459.17236328 C13.42881329 462.32585144 8.15379881 462.82867027 1.75 462.875 C0.97140625 462.90787109 0.1928125 462.94074219 -0.609375 462.97460938 C-14.70015 463.10082967 -25.81984089 453.96981557 -36.88818359 446.3269043 C-41.64992038 443.03956433 -46.43637066 439.78844981 -51.21875 436.53125 C-52.69879517 435.52100769 -52.69879517 435.52100769 -54.20874023 434.49035645 C-64.43556681 427.51918779 -74.77445301 420.72294872 -85.125 413.9375 C-101.65414883 403.08716626 -118.08712027 392.10233672 -134.45727539 381.01367188 C-143.16921288 375.11476651 -151.89870986 369.24689306 -160.68359375 363.45703125 C-162.3665448 362.34547161 -164.04948768 361.23389961 -165.73242188 360.12231445 C-168.86989983 358.05071523 -172.01398182 355.98969381 -175.16210938 353.93432617 C-176.56535886 353.00868677 -177.96836801 352.08268289 -179.37109375 351.15625 C-180.00123886 350.74925369 -180.63138397 350.34225739 -181.28062439 349.92292786 C-186.10427309 346.71741731 -190.04235976 342.93190265 -192.125 337.4375 C-192.49609375 334.66796875 -192.49609375 334.66796875 -192.5625 331.625 C-192.60246094 330.62855469 -192.64242187 329.63210938 -192.68359375 328.60546875 C-191.73063011 323.20089871 -188.38950018 319.13695037 -183.98706055 315.93041992 C-182.83686489 315.16374344 -181.6780259 314.40990575 -180.51171875 313.66796875 C-179.89730423 313.26089188 -179.28288971 312.853815 -178.64985657 312.43440247 C-176.71178863 311.15236669 -174.76327125 309.88760464 -172.8125 308.625 C-170.84538754 307.34249745 -168.88091913 306.05639622 -166.92158508 304.76203918 C-165.7078379 303.96109176 -164.48933778 303.16729215 -163.26579285 302.38139343 C-161.85034116 301.45157011 -160.48195098 300.45079114 -159.125 299.4375 C-159.125 298.7775 -159.125 298.1175 -159.125 297.4375 C-161.340075 295.69122732 -161.340075 295.69122732 -164.19921875 293.8828125 C-165.25947266 293.18542969 -166.31972656 292.48804688 -167.41210938 291.76953125 C-168.54531759 291.03346093 -169.67878356 290.29778729 -170.8125 289.5625 C-173.00527605 288.12969835 -175.19672895 286.69486925 -177.38671875 285.2578125 C-178.36600342 284.62117676 -179.34528809 283.98454102 -180.35424805 283.32861328 C-185.51134631 279.80875398 -190.08320672 276.56287985 -192.125 270.4375 C-192.84132227 265.04699404 -192.86207534 260.26263893 -190.8125 255.1875 C-186.6861696 250.96520843 -181.99963963 247.73335564 -177.125 244.4375 C-176.38652832 243.93250977 -175.64805664 243.42751953 -174.88720703 242.90722656 C-172.45080444 241.24288522 -170.00816811 239.58819234 -167.5625 237.9375 C-166.76440918 237.39657715 -165.96631836 236.8556543 -165.14404297 236.29833984 C-164.01893311 235.54738037 -164.01893311 235.54738037 -162.87109375 234.78125 C-161.86067017 234.10352539 -161.86067017 234.10352539 -160.82983398 233.41210938 C-159.125 232.4375 -159.125 232.4375 -157.125 232.4375 C-157.125 231.7775 -157.125 231.1175 -157.125 230.4375 C-157.84429687 230.17557861 -158.56359375 229.91365723 -159.3046875 229.64379883 C-164.32298457 227.49738212 -168.63953756 224.20435216 -173.125 221.125 C-174.10984375 220.46048828 -175.0946875 219.79597656 -176.109375 219.11132812 C-188.79863262 210.44319336 -188.79863262 210.44319336 -192.125 203.4375 C-192.92401707 198.08912451 -192.84932328 193.10659278 -190.6875 188.125 C-184.14579968 181.26419235 -175.94298086 176.18236215 -168.0625 171 C-167.10150391 170.36384766 -166.14050781 169.72769531 -165.15039062 169.07226562 C-162.81070049 167.52411245 -160.46890353 165.97926338 -158.125 164.4375 C-165.42020166 159.03084009 -165.42020166 159.03084009 -172.94921875 153.9609375 C-188.27848987 144.13052026 -188.27848987 144.13052026 -192.125 136.4375 C-192.61589256 131.06182414 -192.85701215 126.12431061 -190.6875 121.125 C-184.71841404 114.86473912 -177.35684208 110.12046669 -170.1328125 105.4296875 C-169.28649261 104.87519928 -168.44017273 104.32071106 -167.56820679 103.74942017 C-165.74771235 102.55677924 -163.92620064 101.3656899 -162.10375977 100.17602539 C-157.15924848 96.94722441 -152.22371095 93.70478578 -147.2890625 90.4609375 C-145.76620636 89.4599704 -145.76620636 89.4599704 -144.21258545 88.43878174 C-133.95982695 81.68885378 -123.78797246 74.82155237 -113.625 67.9375 C-97.16114041 56.79114267 -80.60670048 45.79041811 -63.98583984 34.87963867 C-55.3747126 29.2252173 -46.77843939 23.5522766 -38.234375 17.796875 C-37.46223663 17.27770004 -36.69009827 16.75852509 -35.89456177 16.22361755 C-32.30600534 13.81041391 -28.72191465 11.39111968 -25.14599609 8.95922852 C-23.89180757 8.11444017 -22.63742513 7.26993962 -21.3828125 6.42578125 C-19.77623779 5.33583862 -19.77623779 5.33583862 -18.13720703 4.22387695 C-12.12223762 0.65672416 -6.813349 0.04929272 0 0 Z " fill="#E5E5E5" transform="translate(192.125,24.5625)"/>
<path d="M0 0 C2.9702518 1.65626692 5.77905165 3.52717323 8.6015625 5.421875 C9.45354218 5.98485291 10.30552185 6.54783081 11.18331909 7.12786865 C14.002533 8.99402622 16.81377466 10.87183407 19.625 12.75 C21.60967178 14.06759106 23.59470355 15.38464004 25.58007812 16.70117188 C39.81452233 26.15365882 53.98096543 35.70722902 68.13357544 45.28164673 C82.384996 54.92245409 96.69900695 64.46447444 111.0625 73.9375 C112.46870605 74.8663501 112.46870605 74.8663501 113.90332031 75.81396484 C116.57065632 77.5750482 119.24000884 79.3330267 121.91015625 81.08984375 C122.68436417 81.60107285 123.45857208 82.11230194 124.25624084 82.63902283 C128.22502667 85.24383183 132.22264776 87.80255745 136.25561523 90.30688477 C137.04371078 90.79882828 137.83180634 91.29077179 138.64378357 91.79762268 C143.63919513 94.34678136 149.06637166 94.3027682 154.5625 94.4375 C155.66561523 94.50614258 155.66561523 94.50614258 156.79101562 94.57617188 C168.92434404 94.81571398 179.38938961 86.00230038 189.01367188 79.45587158 C191.84247074 77.53205576 194.68211879 75.62452324 197.52120972 73.71594238 C199.01823733 72.70945266 200.51475294 71.70220101 202.01077271 70.69421387 C210.02048358 65.30069195 218.07696044 59.97883064 226.14547729 54.67379761 C228.47873671 53.13898693 230.80982988 51.60092389 233.14086914 50.06274414 C234.56251749 49.12754606 235.9843037 48.19255749 237.40625 47.2578125 C238.38977699 46.60789085 238.38977699 46.60789085 239.39317322 45.94483948 C243.8854925 43 243.8854925 43 245 43 C245.00238835 43.9352139 245.00477671 44.8704278 245.00723743 45.83398151 C245.06597639 68.56743672 245.14182429 91.30078547 245.23571491 114.03412342 C245.28072134 125.02770341 245.32012475 136.02125064 245.34643555 147.01489258 C245.36937644 156.59456895 245.40273047 166.1741421 245.44870156 175.75373667 C245.47268665 180.82822411 245.49138071 185.90260899 245.49761391 190.97715187 C245.50364094 195.75009253 245.52355394 200.5227706 245.55427551 205.29561424 C245.56309411 207.05041051 245.56677047 208.80524105 245.56500816 210.56005859 C245.56336515 212.95028345 245.5799702 215.33969848 245.60127258 217.72981262 C245.59642501 218.42922669 245.59157743 219.12864075 245.58658296 219.84924918 C245.62891853 222.71421806 245.6871002 224.56757456 247.39462566 226.9273634 C249.48896178 228.32670156 250.93994916 228.42751507 253.44921875 228.51171875 C254.29677734 228.54716797 255.14433594 228.58261719 256.01757812 228.61914062 C257.33918945 228.65297852 257.33918945 228.65297852 258.6875 228.6875 C259.58017578 228.72166016 260.47285156 228.75582031 261.39257812 228.79101562 C263.59492671 228.87345648 265.79687938 228.94261551 268 229 C263.7388199 232.53862531 259.24162055 235.62624914 254.65234375 238.71484375 C253.82361755 239.27470978 252.99489136 239.83457581 252.14105225 240.41140747 C249.40826479 242.25601847 246.67304523 244.09698167 243.9375 245.9375 C243.00080475 246.56872772 242.0641095 247.19995544 241.09902954 247.85031128 C221.58845016 260.99566973 201.95935856 273.95978825 182.28997803 286.86599731 C181.54677307 287.35373627 180.80356812 287.84147522 180.0378418 288.34399414 C179.34493042 288.79828293 178.65201904 289.25257172 177.93811035 289.72062683 C176.16008146 290.89432804 174.39519281 292.08555689 172.6315918 293.28076172 C166.92365466 297.00979904 161.4958559 297.38959992 154.875 297.4375 C154.09640625 297.47037109 153.3178125 297.50324219 152.515625 297.53710938 C138.42485 297.66332967 127.30515911 288.53231557 116.23681641 280.8894043 C111.47507962 277.60206433 106.68862934 274.35094981 101.90625 271.09375 C100.42620483 270.08350769 100.42620483 270.08350769 98.91625977 269.05285645 C88.68943319 262.08168779 78.35054699 255.28544872 68 248.5 C51.47085117 237.64966626 35.03787973 226.66483672 18.66772461 215.57617188 C9.95578712 209.67726651 1.22629014 203.80939306 -7.55859375 198.01953125 C-9.2415448 196.90797161 -10.92448768 195.79639961 -12.60742188 194.68481445 C-15.74489983 192.61321523 -18.88898182 190.55219381 -22.03710938 188.49682617 C-23.44035886 187.57118677 -24.84336801 186.64518289 -26.24609375 185.71875 C-26.87623886 185.31175369 -27.50638397 184.90475739 -28.15562439 184.48542786 C-32.97927309 181.27991731 -36.91735976 177.49440265 -39 172 C-39.37109375 169.23046875 -39.37109375 169.23046875 -39.4375 166.1875 C-39.47746094 165.19105469 -39.51742187 164.19460938 -39.55859375 163.16796875 C-38.60563011 157.76339871 -35.26450018 153.69945037 -30.86206055 150.49291992 C-29.71186489 149.72624344 -28.5530259 148.97240575 -27.38671875 148.23046875 C-26.77230423 147.82339188 -26.15788971 147.416315 -25.52485657 146.99690247 C-23.58678863 145.71486669 -21.63827125 144.45010464 -19.6875 143.1875 C-17.72038754 141.90499745 -15.75591913 140.61889622 -13.79658508 139.32453918 C-12.5828379 138.52359176 -11.36433778 137.72979215 -10.14079285 136.94389343 C-8.72534116 136.01407011 -7.35695098 135.01329114 -6 134 C-6 133.34 -6 132.68 -6 132 C-8.215075 130.25372732 -8.215075 130.25372732 -11.07421875 128.4453125 C-12.13447266 127.74792969 -13.19472656 127.05054688 -14.28710938 126.33203125 C-15.42031759 125.59596093 -16.55378356 124.86028729 -17.6875 124.125 C-19.88027605 122.69219835 -22.07172895 121.25736925 -24.26171875 119.8203125 C-25.24100342 119.18367676 -26.22028809 118.54704102 -27.22924805 117.89111328 C-32.38634631 114.37125398 -36.95820672 111.12537985 -39 105 C-39.71632227 99.60949404 -39.73707534 94.82513893 -37.6875 89.75 C-33.5611696 85.52770843 -28.87463963 82.29585564 -24 79 C-23.26152832 78.49500977 -22.52305664 77.99001953 -21.76220703 77.46972656 C-19.32580444 75.80538522 -16.88316811 74.15069234 -14.4375 72.5 C-13.63940918 71.95907715 -12.84131836 71.4181543 -12.01904297 70.86083984 C-10.89393311 70.10988037 -10.89393311 70.10988037 -9.74609375 69.34375 C-8.73567017 68.66602539 -8.73567017 68.66602539 -7.70483398 67.97460938 C-6 67 -6 67 -4 67 C-4 66.34 -4 65.68 -4 65 C-4.71929687 64.73807861 -5.43859375 64.47615723 -6.1796875 64.20629883 C-11.19798457 62.05988212 -15.51453756 58.76685216 -20 55.6875 C-20.98484375 55.02298828 -21.9696875 54.35847656 -22.984375 53.67382812 C-35.67363262 45.00569336 -35.67363262 45.00569336 -39 38 C-39.79901707 32.65162451 -39.72432328 27.66909278 -37.5625 22.6875 C-31.1013195 15.91113996 -22.9650377 10.73874172 -15.25 5.5 C-14.33089844 4.85546875 -13.41179688 4.2109375 -12.46484375 3.546875 C-11.57410156 2.94359375 -10.68335937 2.3403125 -9.765625 1.71875 C-8.96930664 1.17154297 -8.17298828 0.62433594 -7.35253906 0.06054688 C-4.2310264 -1.34666058 -3.225088 -1.18749453 0 0 Z " fill="#CE000F" transform="translate(39,190)"/>
<path d="M0 0 C0.77859375 -0.03287109 1.5571875 -0.06574219 2.359375 -0.09960938 C16.45380818 -0.22586244 27.57723625 8.91021001 38.64834595 16.55496216 C43.35875161 19.80712277 48.09338416 23.02375891 52.82421875 26.24609375 C53.80327682 26.91442734 54.7823349 27.58276093 55.7910614 28.27134705 C66.84191879 35.80410858 78.00960099 43.15765457 89.1875 50.5 C91.08595936 51.74801362 92.98439742 52.99605965 94.8828125 54.24414062 C97.44964988 55.93139828 100.01672383 57.61828593 102.58491516 59.30348206 C104.03269014 60.25356998 105.47975667 61.20473881 106.92593384 62.15725708 C108.19583206 62.99138895 109.46894924 63.82064711 110.74569702 64.64425659 C112.13882021 65.55017674 113.50995628 66.48979795 114.875 67.4375 C114.875 67.7675 114.875 68.0975 114.875 68.4375 C114.31514404 68.45208252 113.75528809 68.46666504 113.1784668 68.48168945 C110.63911863 68.55621352 108.10107922 68.65285581 105.5625 68.75 C104.68142578 68.77255859 103.80035156 68.79511719 102.89257812 68.81835938 C102.04501953 68.85380859 101.19746094 68.88925781 100.32421875 68.92578125 C99.54393311 68.95196533 98.76364746 68.97814941 97.9597168 69.00512695 C95.29660248 69.55746042 94.51788768 70.28203285 92.875 72.4375 C92.53576064 74.92962811 92.53576064 74.92962811 92.765625 77.76620483 C92.81522873 78.87274414 92.86483246 79.97928345 92.91593933 81.11935425 C92.98492935 82.33470856 93.05391937 83.55006287 93.125 84.80224609 C93.21540567 86.7681461 93.30573052 88.73405138 93.3930769 90.70008969 C93.45556882 92.09746331 93.51988525 93.49475634 93.58588886 94.89196849 C94.00766661 103.92178915 94.20172395 112.95793292 94.40999413 121.99475741 C94.61404872 130.77529337 94.88612078 139.53970647 95.38134766 148.30908203 C98.30811063 201.32008248 98.30811063 201.32008248 87.82617188 214.0802002 C78.43033533 223.60924819 66.5722422 229.42335633 54.47924805 234.78619385 C46.08108619 238.59239769 38.58807417 243.84060602 30.98872375 249.01568222 C13.47401311 260.79713045 13.47401311 260.79713045 2.125 260.75 C1.36445313 260.76611328 0.60390625 260.78222656 -0.1796875 260.79882812 C-9.90690874 260.80707153 -17.19200943 257.17630286 -25.1171875 251.8203125 C-25.96350739 251.26016449 -26.80982727 250.70001648 -27.68179321 250.12289429 C-30.46128379 248.27936652 -33.23060982 246.42115908 -36 244.5625 C-37.96628056 243.25378123 -39.93308687 241.94585206 -41.90039062 240.63867188 C-56.94816118 230.62479869 -71.92508325 220.50420839 -86.89306641 210.37158203 C-102.19392826 200.02137742 -117.60609766 189.84397589 -133.05273438 179.71289062 C-133.9444635 179.12745483 -134.83619263 178.54201904 -135.75494385 177.93884277 C-137.40945768 176.8529442 -139.06478698 175.76828653 -140.72113037 174.68518066 C-144.17808431 172.41663953 -147.59441427 170.11988195 -150.94067383 167.69042969 C-153.29545214 166.02441004 -155.30516759 164.78904228 -157.87109375 163.578125 C-163.30806035 160.96377055 -168.20629846 157.57133996 -173.1875 154.1875 C-174.14205078 153.55714844 -175.09660156 152.92679688 -176.08007812 152.27734375 C-182.34686508 148.0302873 -188.65786239 143.37177523 -192.125 136.4375 C-192.61589256 131.06182414 -192.85701215 126.12431061 -190.6875 121.125 C-184.71841404 114.86473912 -177.35684208 110.12046669 -170.1328125 105.4296875 C-169.28649261 104.87519928 -168.44017273 104.32071106 -167.56820679 103.74942017 C-165.74771235 102.55677924 -163.92620064 101.3656899 -162.10375977 100.17602539 C-157.15924848 96.94722441 -152.22371095 93.70478578 -147.2890625 90.4609375 C-145.76620636 89.4599704 -145.76620636 89.4599704 -144.21258545 88.43878174 C-133.95982695 81.68885378 -123.78797246 74.82155237 -113.625 67.9375 C-97.16114041 56.79114267 -80.60670048 45.79041811 -63.98583984 34.87963867 C-55.3747126 29.2252173 -46.77843939 23.5522766 -38.234375 17.796875 C-37.46223663 17.27770004 -36.69009827 16.75852509 -35.89456177 16.22361755 C-32.30600534 13.81041391 -28.72191465 11.39111968 -25.14599609 8.95922852 C-23.89180757 8.11444017 -22.63742513 7.26993962 -21.3828125 6.42578125 C-19.77623779 5.33583862 -19.77623779 5.33583862 -18.13720703 4.22387695 C-12.12223762 0.65672416 -6.813349 0.04929272 0 0 Z " fill="#22A6EF" transform="translate(192.125,24.5625)"/>
<path d="M0 0 C3.78268302 2.30742956 7.51924166 4.65697205 11.20947266 7.11035156 C12.06145233 7.67191452 12.91343201 8.23347748 13.79122925 8.8120575 C16.60827403 10.67109159 19.42068246 12.53700871 22.23291016 14.40332031 C24.21782606 15.71598686 26.20285388 17.02848421 28.18798828 18.34082031 C42.42811449 27.76663999 56.5956158 37.29829369 70.73745728 46.87072754 C89.49021582 59.56236346 108.38541171 72.03404298 127.31733704 84.45643616 C128.06073837 84.94430099 128.80413971 85.43216583 129.57006836 85.93481445 C130.26206833 86.38887665 130.9540683 86.84293884 131.66703796 87.3107605 C133.45803092 88.49197074 135.24027482 89.68523251 137.02050781 90.88256836 C145.15602997 96.25379393 154.53653027 96.91574909 163.98071289 95.14624023 C175.32324326 92.13377142 184.54536016 84.62417086 194.04541016 78.02832031 C196.91424055 76.06032905 199.78654249 74.09747359 202.65887451 72.13459778 C204.57217885 70.82637833 206.48433432 69.51647702 208.39532471 68.20487976 C216.77296714 62.45710758 225.22869964 56.83656724 233.73291016 51.27832031 C234.95225333 50.47749348 236.17157384 49.67663213 237.39086914 48.87573242 C245.47830425 43.59082031 245.47830425 43.59082031 246.60791016 43.59082031 C246.61670952 44.48284904 246.61670952 44.48284904 246.62568665 45.39289856 C246.68954138 51.57352786 246.77394009 57.75363261 246.87036133 63.93383789 C246.90364872 66.2413848 246.93166865 68.54901388 246.9543457 70.85668945 C246.98782123 74.17076694 247.04013414 77.48408876 247.09619141 80.79785156 C247.10577629 82.34953789 247.10577629 82.34953789 247.11555481 83.93257141 C247.13534897 84.89334091 247.15514313 85.85411041 247.17553711 86.84399414 C247.18664017 87.69004715 247.19774323 88.53610016 247.20918274 89.40779114 C247.6950917 92.06813851 248.48565081 92.9622036 250.60791016 94.59082031 C252.7240686 95.09136782 252.7240686 95.09136782 255.05712891 95.10253906 C256.3284668 95.15571289 256.3284668 95.15571289 257.62548828 95.20996094 C258.5065625 95.23251953 259.38763672 95.25507813 260.29541016 95.27832031 C261.18808594 95.31248047 262.08076172 95.34664063 263.00048828 95.38183594 C265.20283687 95.46427679 267.40478953 95.53343582 269.60791016 95.59082031 C265.34673006 99.12944562 260.84953071 102.21706945 256.26025391 105.30566406 C255.43152771 105.86553009 254.60280151 106.42539612 253.7489624 107.00222778 C251.01617495 108.84683878 248.28095539 110.68780198 245.54541016 112.52832031 C244.6087149 113.15954803 243.67201965 113.79077576 242.7069397 114.44113159 C223.19636032 127.58649004 203.56726871 140.55060856 183.89788818 153.45681763 C183.15468323 153.94455658 182.41147827 154.43229553 181.64575195 154.93481445 C180.95284058 155.38910324 180.2599292 155.84339203 179.54602051 156.31144714 C177.76799161 157.48514835 176.00310297 158.6763772 174.23950195 159.87158203 C168.53156482 163.60061936 163.10376606 163.98042023 156.48291016 164.02832031 C155.70431641 164.06119141 154.92572266 164.0940625 154.12353516 164.12792969 C140.03276016 164.25414998 128.91306926 155.12313588 117.84472656 147.48022461 C113.08298977 144.19288464 108.29653949 140.94177013 103.51416016 137.68457031 C102.03411499 136.674328 102.03411499 136.674328 100.52416992 135.64367676 C90.29734334 128.6725081 79.95845715 121.87626903 69.60791016 115.09082031 C53.07876133 104.24048658 36.64578988 93.25565703 20.27563477 82.16699219 C11.56369728 76.26808682 2.8342003 70.40021338 -5.95068359 64.61035156 C-7.63363464 63.49879193 -9.31657753 62.38721992 -10.99951172 61.27563477 C-14.13698967 59.20403554 -17.28107167 57.14301413 -20.42919922 55.08764648 C-21.8324487 54.16200709 -23.23545785 53.2360032 -24.63818359 52.30957031 C-25.2683287 51.90257401 -25.89847382 51.4955777 -26.54771423 51.07624817 C-31.37136293 47.87073763 -35.3094496 44.08522297 -37.39208984 38.59082031 C-37.76318359 35.82128906 -37.76318359 35.82128906 -37.82958984 32.77832031 C-37.86955078 31.781875 -37.90951172 30.78542969 -37.95068359 29.75878906 C-36.98467377 24.28022985 -33.50544205 20.21735511 -29.14990234 16.9284668 C-27.94836709 16.09260222 -26.73694998 15.27080084 -25.51708984 14.46191406 C-24.8701416 14.02315445 -24.22319336 13.58439484 -23.55664062 13.13233948 C-22.19943916 12.21781448 -20.83786879 11.30974224 -19.47216797 10.40795898 C-17.38248819 9.02195189 -15.317238 7.60393765 -13.25146484 6.18261719 C-11.92468666 5.29453405 -10.59660492 4.40839464 -9.26708984 3.52441406 C-8.65236816 3.09857529 -8.03764648 2.67273651 -7.40429688 2.23399353 C-3.12569605 -0.53466693 -3.12569605 -0.53466693 0 0 Z " fill="#33973D" transform="translate(37.39208984375,323.4091796875)"/>
<path d="M0 0 C3.93206067 2.12858985 7.63737263 4.53794907 11.359375 7.01245117 C12.21135468 7.57401413 13.06333435 8.13557709 13.94113159 8.7141571 C16.75817638 10.5731912 19.5705848 12.43910832 22.3828125 14.30541992 C24.36772841 15.61808647 26.35275623 16.93058382 28.33789062 18.24291992 C41.69540261 27.08451988 54.98889708 36.01910293 68.2578125 44.99291992 C82.39947908 54.55409672 96.56318378 64.08080323 110.79492188 73.50756836 C112.70160955 74.77163167 114.60676845 76.03800452 116.51025391 77.30688477 C134.48126682 90.31760681 134.48126682 90.31760681 155.3828125 95.74291992 C156.34445313 95.76870117 157.30609375 95.79448242 158.296875 95.82104492 C167.1660383 94.98017617 174.03547172 91.50915422 181.3046875 86.55932617 C182.18708603 85.97325592 183.06948456 85.38718567 183.97862244 84.78335571 C186.82969758 82.88574142 189.66865964 80.97081468 192.5078125 79.05541992 C194.47162263 77.74409687 196.4362283 76.43396444 198.40161133 75.125 C203.28379081 71.86968577 208.15670799 68.60082181 213.02667236 65.32727051 C219.17689124 61.19652033 225.34184769 57.08781649 231.50524902 52.97677612 C233.41747726 51.69901951 235.32676213 50.41697296 237.23535156 49.13378906 C237.81531387 48.7450058 238.39527618 48.35622253 238.99281311 47.95565796 C240.52568978 46.92805693 242.05721383 45.898439 243.58862305 44.86865234 C245.7578125 43.49291992 245.7578125 43.49291992 246.7578125 43.49291992 C253.97053205 102.03260392 253.97053205 102.03260392 243.05322266 116.17407227 C233.8566703 125.71783799 221.34481793 131.3144006 209.44970703 136.74487305 C203.99401583 139.28321409 199.0712956 142.30794599 194.12890625 145.72729492 C193.39995148 146.23157013 192.6709967 146.73584534 191.91995239 147.25540161 C190.51291393 148.23641458 189.10804178 149.2205434 187.70556641 150.20806885 C177.62777942 157.2759217 168.09165234 163.9138122 155.3203125 163.93041992 C154.33160156 163.94975586 153.34289062 163.9690918 152.32421875 163.98901367 C140.12533878 162.29212675 130.95918042 155.30066392 121.07006836 148.45776367 C116.29621845 145.15510555 111.49530902 141.89206032 106.69921875 138.62182617 C105.70943024 137.94523956 104.71964172 137.26865295 103.69985962 136.57156372 C93.46791505 129.5864168 83.11937448 122.78359216 72.7578125 115.99291992 C55.58176266 104.72248267 38.51695934 93.29476623 21.51171875 81.76831055 C20.21485138 80.89015686 20.21485138 80.89015686 18.89178467 79.9942627 C17.29259592 78.91106883 15.69425233 77.82662555 14.09698486 76.74060059 C8.00336073 72.6125022 1.87654215 68.53995723 -4.6328125 65.09057617 C-9.63598492 62.34312591 -14.30398986 59.17925864 -18.9921875 55.93041992 C-19.81589844 55.36645508 -20.63960937 54.80249023 -21.48828125 54.22143555 C-35.12960423 44.83066973 -35.12960423 44.83066973 -37.2421875 38.49291992 C-37.95850977 33.10241396 -37.97926284 28.31805885 -35.9296875 23.24291992 C-32.33487498 19.56450711 -28.44525448 16.67456132 -24.18261719 13.8059082 C-22.73335232 12.82526572 -21.29263715 11.83196602 -19.85644531 10.83227539 C-17.20685402 8.99026841 -14.53950914 7.17676092 -11.8671875 5.36791992 C-10.56491211 4.45997681 -10.56491211 4.45997681 -9.23632812 3.53369141 C-8.40552734 2.98140869 -7.57472656 2.42912598 -6.71875 1.86010742 C-5.97705566 1.35592285 -5.23536133 0.85173828 -4.47119141 0.33227539 C-2.2421875 -0.50708008 -2.2421875 -0.50708008 0 0 Z " fill="#E57D21" transform="translate(37.2421875,256.507080078125)"/>
<path d="M0 0 C5.01868556 1.23728893 9.34715587 4.69107036 13.6015625 7.51953125 C14.45354218 8.08109421 15.30552185 8.64265717 16.18331909 9.22123718 C19.00036388 11.08027128 21.8127723 12.9461884 24.625 14.8125 C26.60991591 16.12516655 28.59494373 17.4376639 30.58007812 18.75 C44.82020433 28.17581967 58.98770564 37.70747338 73.12954712 47.27990723 C91.88230566 59.97154315 110.77750155 72.44322267 129.70942688 84.86561584 C130.45282822 85.35348068 131.19622955 85.84134552 131.9621582 86.34399414 C132.65415817 86.79805634 133.34615814 87.25211853 134.05912781 87.71994019 C135.85012077 88.90115043 137.63236467 90.09441219 139.41259766 91.29174805 C147.54811982 96.66297361 156.92862011 97.32492878 166.37280273 95.55541992 C177.7153331 92.54295111 186.93745001 85.03335055 196.4375 78.4375 C199.30633039 76.46950874 202.17863233 74.50665328 205.05096436 72.54377747 C206.96426869 71.23555801 208.87642417 69.9256567 210.78741455 68.61405945 C219.16505698 62.86628727 227.62078948 57.24574692 236.125 51.6875 C237.34434317 50.88667317 238.56366368 50.08581182 239.78295898 49.28491211 C247.8703941 44 247.8703941 44 249 44 C250.28010683 54.21239473 250.28010683 54.21239473 247.50933838 58.08163452 C245.2702622 59.91430189 242.98446876 61.42146485 240.5078125 62.91796875 C239.62302216 63.49932587 238.73823181 64.08068298 237.82662964 64.67965698 C234.95022507 66.55642105 232.04007928 68.37151619 229.125 70.1875 C227.1421009 71.46359796 225.16163337 72.74348204 223.18359375 74.02709961 C219.26994095 76.55916851 215.34329201 79.06866496 211.40332031 81.55957031 C206.79986016 84.47671202 202.25473746 87.46800293 197.7421875 90.5234375 C196.56639974 91.31509214 195.39046289 92.10652541 194.21435547 92.89770508 C192.15110971 94.28725392 190.09003997 95.68004238 188.03173828 97.0769043 C175.52288392 105.32062796 162.7151316 108.95957075 147.75390625 106.45703125 C141.5283699 104.80155155 136.22274646 102.12183921 130.8203125 98.66796875 C130.13273865 98.23305618 129.44516479 97.79814362 128.73675537 97.35005188 C120.6979717 92.2284493 112.8169811 86.87061569 104.93505859 81.51220703 C89.04143531 70.71124864 73.06452961 60.04482587 57 49.5 C35.20439615 35.19031075 13.58337311 20.62732507 -8 6 C-5.38485683 3.87961365 -2.80362384 1.86908256 0 0 Z " fill="#2C7B31" transform="translate(35,323)"/>
<path d="M0 0 C5.01868556 1.23728893 9.34715587 4.69107036 13.6015625 7.51953125 C14.45354218 8.08109421 15.30552185 8.64265717 16.18331909 9.22123718 C19.00036388 11.08027128 21.8127723 12.9461884 24.625 14.8125 C26.60991591 16.12516655 28.59494373 17.4376639 30.58007812 18.75 C43.93759011 27.59159996 57.23108458 36.52618301 70.5 45.5 C84.64166658 55.0611768 98.80537128 64.58788331 113.03710938 74.01464844 C114.94379705 75.27871175 116.84895595 76.5450846 118.75244141 77.81396484 C136.72345432 90.82468689 136.72345432 90.82468689 157.625 96.25 C158.58664063 96.27578125 159.54828125 96.3015625 160.5390625 96.328125 C169.4082258 95.48725624 176.27765922 92.01623429 183.546875 87.06640625 C184.42927353 86.480336 185.31167206 85.89426575 186.22080994 85.29043579 C189.07188508 83.39282149 191.91084714 81.47789476 194.75 79.5625 C196.71381013 78.25117695 198.6784158 76.94104452 200.64379883 75.63208008 C205.52597831 72.37676585 210.39889549 69.10790189 215.26885986 65.83435059 C221.41907874 61.70360041 227.58403519 57.59489657 233.74743652 53.4838562 C235.65966476 52.20609959 237.56894963 50.92405304 239.47753906 49.64086914 C240.05750137 49.25208588 240.63746368 48.86330261 241.23500061 48.46273804 C242.76787728 47.43513701 244.29940133 46.40551908 245.83081055 45.37573242 C248 44 248 44 249 44 C250.28010683 54.21239473 250.28010683 54.21239473 247.50933838 58.08163452 C245.27026015 59.91430357 242.98447519 61.42146975 240.5078125 62.91796875 C239.18055901 63.79000443 239.18055901 63.79000443 237.82649231 64.67965698 C234.9500941 66.55634529 232.03996451 68.3714203 229.125 70.1875 C227.14281515 71.46357111 225.16307989 72.7434552 223.18579102 74.02709961 C219.27302213 76.55941674 215.34722734 79.06907343 211.40771484 81.55957031 C206.79479018 84.48149584 202.23544638 87.47256115 197.70703125 90.5234375 C196.52664905 91.31503765 195.34615323 92.10646842 194.16552734 92.89770508 C192.090587 94.28921136 190.01661167 95.68215826 187.94384766 97.0769043 C175.38014355 105.32780985 162.92131734 109.04071812 147.828125 106.45703125 C141.5733745 104.79998914 136.24245345 102.13981318 130.81640625 98.66796875 C130.12911438 98.23305618 129.44182251 97.79814362 128.73370361 97.35005188 C120.69659661 92.22751558 112.81623353 86.87010746 104.93505859 81.51220703 C89.04143531 70.71124864 73.06452961 60.04482587 57 49.5 C35.20439615 35.19031075 13.58337311 20.62732507 -8 6 C-5.38485683 3.87961365 -2.80362384 1.86908256 0 0 Z " fill="#BB651C" transform="translate(35,256)"/>
<path d="M0 0 C4.26823028 1.44346181 7.72622641 3.8849242 11.45166016 6.38574219 C12.30363983 6.94872009 13.15561951 7.511698 14.03341675 8.09173584 C16.85263065 9.9578934 19.66387231 11.83570126 22.47509766 13.71386719 C24.45976944 15.03145825 26.4448012 16.34850723 28.43017578 17.66503906 C42.66461999 27.11752601 56.83106308 36.6710962 70.9836731 46.24551392 C85.23509365 55.88632127 99.54910461 65.42834163 113.91259766 74.90136719 C115.31880371 75.83021729 115.31880371 75.83021729 116.75341797 76.77783203 C119.42075398 78.53891539 122.0901065 80.29689389 124.76025391 82.05371094 C125.53446182 82.56494003 126.30866974 83.07616913 127.1063385 83.60289001 C131.07512432 86.20769902 135.07274541 88.76642464 139.10571289 91.27075195 C139.89380844 91.76269547 140.68190399 92.25463898 141.49388123 92.76148987 C146.48929279 95.31064855 151.91646931 95.26663539 157.41259766 95.40136719 C158.51571289 95.47000977 158.51571289 95.47000977 159.64111328 95.54003906 C171.7744417 95.77958117 182.23948727 86.96616757 191.86376953 80.41973877 C194.6925684 78.49592295 197.53221644 76.58839043 200.37130737 74.67980957 C201.86833499 73.67331985 203.36485059 72.6660682 204.86087036 71.65808105 C212.87058124 66.26455914 220.9270581 60.94269783 228.99557495 55.63766479 C231.32883436 54.10285412 233.65992753 52.56479108 235.9909668 51.02661133 C237.41261515 50.09141325 238.83440136 49.15642468 240.25634766 48.22167969 C240.91203232 47.78839859 241.56771698 47.35511749 242.24327087 46.90870667 C246.73559016 43.96386719 246.73559016 43.96386719 247.85009766 43.96386719 C249.15790931 54.1817959 249.15790931 54.1817959 246.32748413 58.03863525 C244.0362227 59.86463857 241.70043029 61.36200352 239.17431641 62.84667969 C237.81773422 63.71468201 237.81773422 63.71468201 236.43374634 64.60021973 C233.49182755 66.47041331 230.51689889 68.27894519 227.53759766 70.08886719 C225.51111512 71.36120495 223.48727187 72.63775587 221.46606445 73.91845703 C217.45735595 76.45389397 213.43728148 78.96954322 209.40771484 81.47167969 C204.61250949 84.46416552 199.89865829 87.55516843 195.23291016 90.74511719 C194.60993546 91.17009491 193.98696075 91.59507263 193.34510803 92.03292847 C190.56053928 93.93701205 187.78362144 95.85149955 185.01098633 97.77294922 C176.1746012 103.75933994 169.03913583 106.49433289 158.35009766 106.27636719 C157.55990234 106.27958984 156.76970703 106.2828125 155.95556641 106.28613281 C138.45176119 106.12856992 126.10554596 96.29596998 112.16235352 86.77783203 C107.38002217 83.51431443 102.58582989 80.26832182 97.79150391 77.02246094 C96.80171539 76.3520578 95.81192688 75.68165466 94.79214478 74.99093628 C84.53825821 68.05685187 74.19947786 61.25422764 63.85009766 54.46386719 C46.67561768 43.1909851 29.6092893 31.76574386 12.60400391 20.23925781 C11.73942566 19.65382202 10.87484741 19.06838623 9.98406982 18.46520996 C8.38488108 17.3820161 6.78653749 16.29757282 5.18927002 15.21154785 C0.47539191 12.01815223 -4.29991316 8.94652354 -9.14990234 5.96386719 C-3.33071822 -0.05597846 -3.33071822 -0.05597846 0 0 Z " fill="#A50210" transform="translate(36.14990234375,189.0361328125)"/>
<path d="M0 0 C4.13660746 -0.54577985 5.64213282 -0.26809745 9.037323 2.27542114 C10.13369882 3.33622819 11.21389309 4.41391625 12.28076172 5.50439453 C13.17452766 6.3823896 13.17452766 6.3823896 14.08634949 7.27812195 C16.0494823 9.21487192 17.98988031 11.17272064 19.9296875 13.1328125 C21.28787059 14.48695356 22.64694327 15.84020291 24.00686646 17.19259644 C26.85266183 20.02954751 29.68732608 22.87706362 32.51464844 25.73242188 C36.139542 29.39150007 39.7907065 33.02298089 43.45063591 36.64697456 C46.26161988 39.43627637 49.05815459 42.239713 51.85052872 45.04763412 C53.19135268 46.39246036 54.53664746 47.73284433 55.88644028 49.06866837 C57.77106773 50.93805503 59.63538536 52.82560421 61.49560547 54.71923828 C62.33705864 55.54247337 62.33705864 55.54247337 63.19551086 56.38233948 C65.82654932 59.10159644 66.95641008 60.57014452 67.34402466 64.39254761 C67.23049652 65.2530069 67.11696838 66.11346619 67 67 C58.70728091 67.06947842 50.41468321 67.12280001 42.12174511 67.15543652 C38.27108169 67.1710996 34.42061725 67.19234923 30.57006836 67.22631836 C26.85478571 67.25888946 23.13969456 67.27684817 19.42428017 67.28463173 C18.00606585 67.29017934 16.58786213 67.30101244 15.16972923 67.31719017 C13.18511533 67.3389319 11.20030914 67.34022513 9.21557617 67.34057617 C8.08528488 67.34723801 6.95499359 67.35389984 5.79045105 67.36076355 C3 67 3 67 1.1328125 65.8671875 C-0.52612524 63.13280047 -0.35934738 60.96927286 -0.34057617 57.78442383 C-0.34034958 56.5033223 -0.34012299 55.22222076 -0.33988953 53.90229797 C-0.32456957 52.50387219 -0.30892158 51.10544996 -0.29296875 49.70703125 C-0.28737268 48.27642766 -0.28310263 46.84581831 -0.28010559 45.41520691 C-0.26865756 41.65198868 -0.23919115 37.88911844 -0.20599365 34.1260376 C-0.17529163 30.28524483 -0.1616 26.44439577 -0.14648438 22.60351562 C-0.11432106 15.06885186 -0.06312566 7.53447471 0 0 Z " fill="#CFCFCF" transform="translate(445,93)"/>
<path d="M0 0 C2.25146484 0.84228516 2.25146484 0.84228516 4.25146484 2.84228516 C4.38964844 5.59790039 4.38964844 5.59790039 3.25146484 8.84228516 C0.78261757 11.22146594 -2.05749652 12.94466234 -4.95947266 14.75244141 C-6.24606781 15.58636414 -6.24606781 15.58636414 -7.55865479 16.43713379 C-9.42276085 17.6424906 -11.29240445 18.83931631 -13.16680908 20.02859497 C-17.19283915 22.58331188 -21.1922052 25.17849075 -25.19381714 27.77122498 C-27.27635403 29.11985474 -29.36029911 30.46631228 -31.44558716 31.8106842 C-40.96386344 37.9521519 -50.36422154 44.25891819 -59.73800659 50.61804199 C-62.37394168 52.40506076 -65.01294361 54.18745111 -67.65307617 55.96826172 C-75.9789115 61.58465494 -84.2963963 67.21277692 -92.59729004 72.86598206 C-96.47874653 75.50519332 -100.36786359 78.13295385 -104.25872803 80.75827026 C-106.11213273 82.01259731 -107.9621776 83.27190468 -109.80865479 84.53640747 C-112.35963464 86.28268585 -114.92161509 88.01152331 -117.48681641 89.73681641 C-118.23791183 90.2571344 -118.98900726 90.77745239 -119.76286316 91.3135376 C-123.80242087 94.00219966 -126.7155635 95.81967553 -131.74853516 94.84228516 C-133.74853516 91.84228516 -133.74853516 91.84228516 -133.64306641 89.37280273 C-132.49956679 86.13798463 -131.26072707 85.28115326 -128.43603516 83.35400391 C-127.43314453 82.6635498 -126.43025391 81.9730957 -125.39697266 81.26171875 C-124.18203619 80.45342016 -122.96578717 79.64709244 -121.74853516 78.84228516 C-121.05791992 78.38146545 -120.36730469 77.92064575 -119.65576172 77.44586182 C-114.6454653 74.10516434 -109.61249538 70.79979406 -104.57312012 67.50317383 C-89.03815726 57.33720263 -73.57274477 47.07439843 -58.1975708 36.66836548 C-52.90274226 33.08605554 -47.60187708 29.51268211 -42.30148315 25.93861389 C-38.14641283 23.13646074 -33.99337292 20.33142051 -29.84521484 17.51904297 C-26.06131971 14.95518879 -22.26772401 12.40638993 -18.46594238 9.86914062 C-17.08628274 8.9448065 -15.71012272 8.0152243 -14.33776855 7.08007812 C-12.47584089 5.81229393 -10.6025445 4.56348792 -8.72509766 3.31884766 C-7.68434082 2.61840332 -6.64358398 1.91795898 -5.57128906 1.19628906 C-2.74853516 -0.15771484 -2.74853516 -0.15771484 0 0 Z " fill="#197BB0" transform="translate(193.74853515625,65.15771484375)"/>
<path d="M0 0 C1.51433624 -0.00845947 1.51433624 -0.00845947 3.05926514 -0.01708984 C4.17102112 -0.01304138 5.2827771 -0.00899292 6.42822266 -0.00482178 C7.59573059 -0.00832642 8.76323853 -0.01183105 9.96612549 -0.01544189 C13.17270623 -0.02275025 16.37912263 -0.02101727 19.58570099 -0.01468372 C22.93734378 -0.00962931 26.28898217 -0.01431362 29.640625 -0.01745605 C35.26971414 -0.02109734 40.89875085 -0.01629238 46.52783203 -0.0067749 C53.04099161 0.00410999 59.55402599 0.00058453 66.06718254 -0.01042771 C71.65363069 -0.019496 77.24004109 -0.02078813 82.82649422 -0.01555037 C86.16549566 -0.01242813 89.50445047 -0.01202827 92.84344482 -0.01862335 C96.56449965 -0.02367905 100.28531105 -0.01599163 104.00634766 -0.00482178 C105.11810364 -0.00887024 106.22985962 -0.0129187 107.37530518 -0.01708984 C108.38486267 -0.0114502 109.39442017 -0.00581055 110.43457031 0 C111.31505035 0.00075405 112.1955304 0.0015081 113.10269165 0.002285 C115.21728516 0.25396729 115.21728516 0.25396729 117.21728516 2.25396729 C117.46728516 5.25396729 117.46728516 5.25396729 117.21728516 8.25396729 C114.7146292 10.75662324 113.9358645 10.50652433 110.47926331 10.5146637 C108.97971603 10.52529091 108.97971603 10.52529091 107.44987488 10.53613281 C105.79862358 10.53241669 105.79862358 10.53241669 104.11401367 10.52862549 C102.9578656 10.53373642 101.80171753 10.53884735 100.61053467 10.54411316 C96.77236822 10.55806221 92.93438026 10.55704839 89.09619141 10.55474854 C87.10952642 10.55765158 85.12286136 10.56055875 83.13619751 10.56415528 C76.88708534 10.57525929 70.63803328 10.57568297 64.38891602 10.56964111 C57.93821808 10.56360033 51.48773821 10.57591276 45.03707749 10.59721118 C39.5024147 10.61481452 33.9678214 10.62083054 28.43313164 10.61757344 C25.12590467 10.61575828 21.81886828 10.61972625 18.51165962 10.63228798 C14.8242508 10.64457397 11.13735136 10.63790749 7.44995117 10.62628174 C5.80173622 10.63774734 5.80173622 10.63774734 4.120224 10.64944458 C3.11770599 10.64243027 2.11518799 10.63541595 1.08229065 10.62818909 C-0.22598521 10.6284407 -0.22598521 10.6284407 -1.56069088 10.6286974 C-4.2694487 10.17188274 -5.16037323 9.43863603 -6.78271484 7.25396729 C-7.09521484 4.69146729 -7.09521484 4.69146729 -6.78271484 2.25396729 C-4.27088213 -0.25786543 -3.4719535 0.00297341 0 0 Z " fill="#9A9A9A" transform="translate(342.78271484375,369.74603271484375)"/>
<path d="M0 0 C1.51433624 -0.00845947 1.51433624 -0.00845947 3.05926514 -0.01708984 C4.17102112 -0.01304138 5.2827771 -0.00899292 6.42822266 -0.00482178 C7.59573059 -0.00832642 8.76323853 -0.01183105 9.96612549 -0.01544189 C13.17270623 -0.02275025 16.37912263 -0.02101727 19.58570099 -0.01468372 C22.93734378 -0.00962931 26.28898217 -0.01431362 29.640625 -0.01745605 C35.26971414 -0.02109734 40.89875085 -0.01629238 46.52783203 -0.0067749 C53.04099161 0.00410999 59.55402599 0.00058453 66.06718254 -0.01042771 C71.65363069 -0.019496 77.24004109 -0.02078813 82.82649422 -0.01555037 C86.16549566 -0.01242813 89.50445047 -0.01202827 92.84344482 -0.01862335 C96.56449965 -0.02367905 100.28531105 -0.01599163 104.00634766 -0.00482178 C105.11810364 -0.00887024 106.22985962 -0.0129187 107.37530518 -0.01708984 C108.38486267 -0.0114502 109.39442017 -0.00581055 110.43457031 0 C111.31505035 0.00075405 112.1955304 0.0015081 113.10269165 0.002285 C115.21728516 0.25396729 115.21728516 0.25396729 117.21728516 2.25396729 C117.46728516 5.25396729 117.46728516 5.25396729 117.21728516 8.25396729 C114.7146292 10.75662324 113.9358645 10.50652433 110.47926331 10.5146637 C108.97971603 10.52529091 108.97971603 10.52529091 107.44987488 10.53613281 C105.79862358 10.53241669 105.79862358 10.53241669 104.11401367 10.52862549 C102.9578656 10.53373642 101.80171753 10.53884735 100.61053467 10.54411316 C96.77236822 10.55806221 92.93438026 10.55704839 89.09619141 10.55474854 C87.10952642 10.55765158 85.12286136 10.56055875 83.13619751 10.56415528 C76.88708534 10.57525929 70.63803328 10.57568297 64.38891602 10.56964111 C57.93821808 10.56360033 51.48773821 10.57591276 45.03707749 10.59721118 C39.5024147 10.61481452 33.9678214 10.62083054 28.43313164 10.61757344 C25.12590467 10.61575828 21.81886828 10.61972625 18.51165962 10.63228798 C14.8242508 10.64457397 11.13735136 10.63790749 7.44995117 10.62628174 C5.80173622 10.63774734 5.80173622 10.63774734 4.120224 10.64944458 C3.11770599 10.64243027 2.11518799 10.63541595 1.08229065 10.62818909 C-0.22598521 10.6284407 -0.22598521 10.6284407 -1.56069088 10.6286974 C-4.2694487 10.17188274 -5.16037323 9.43863603 -6.78271484 7.25396729 C-7.09521484 4.69146729 -7.09521484 4.69146729 -6.78271484 2.25396729 C-4.27088213 -0.25786543 -3.4719535 0.00297341 0 0 Z " fill="#9A9A9A" transform="translate(342.78271484375,188.74603271484375)"/>
<path d="M0 0 C1.51433624 -0.00845947 1.51433624 -0.00845947 3.05926514 -0.01708984 C4.17102112 -0.01304138 5.2827771 -0.00899292 6.42822266 -0.00482178 C7.59573059 -0.00832642 8.76323853 -0.01183105 9.96612549 -0.01544189 C13.17270623 -0.02275025 16.37912263 -0.02101727 19.58570099 -0.01468372 C22.93734378 -0.00962931 26.28898217 -0.01431362 29.640625 -0.01745605 C35.26971414 -0.02109734 40.89875085 -0.01629238 46.52783203 -0.0067749 C53.04099161 0.00410999 59.55402599 0.00058453 66.06718254 -0.01042771 C71.65363069 -0.019496 77.24004109 -0.02078813 82.82649422 -0.01555037 C86.16549566 -0.01242813 89.50445047 -0.01202827 92.84344482 -0.01862335 C96.56449965 -0.02367905 100.28531105 -0.01599163 104.00634766 -0.00482178 C105.11810364 -0.00887024 106.22985962 -0.0129187 107.37530518 -0.01708984 C108.38486267 -0.0114502 109.39442017 -0.00581055 110.43457031 0 C111.31505035 0.00075405 112.1955304 0.0015081 113.10269165 0.002285 C115.21728516 0.25396729 115.21728516 0.25396729 117.21728516 2.25396729 C117.52978516 5.25396729 117.52978516 5.25396729 117.21728516 8.25396729 C113.98573093 10.40833677 113.12172464 10.50580865 109.39697266 10.5146637 C108.40431396 10.5217485 107.41165527 10.52883331 106.38891602 10.53613281 C105.30102783 10.5336554 104.21313965 10.53117798 103.09228516 10.52862549 C101.37247437 10.53629189 101.37247437 10.53629189 99.61791992 10.54411316 C95.81765565 10.55804458 92.01757197 10.55704985 88.21728516 10.55474854 C85.58316988 10.55863318 82.94905523 10.56296737 80.31494141 10.56773376 C74.79018545 10.5759491 69.26548062 10.57503681 63.74072266 10.56964111 C57.35191915 10.5635976 50.96333567 10.57592134 44.5745697 10.59721118 C38.43054774 10.61693359 32.28662888 10.62000316 26.14257812 10.61647606 C23.52701297 10.61699079 20.91144441 10.62225674 18.29589844 10.63228798 C14.64451963 10.64457367 10.99365524 10.63790796 7.34228516 10.62628174 C5.71045288 10.63774734 5.71045288 10.63774734 4.0456543 10.64944458 C3.05299561 10.64243027 2.06033691 10.63541595 1.03759766 10.62818909 C-0.25766846 10.6284407 -0.25766846 10.6284407 -1.57910156 10.6286974 C-4.27494694 10.17026195 -5.16537757 9.42690342 -6.78271484 7.25396729 C-7.09521484 4.69146729 -7.09521484 4.69146729 -6.78271484 2.25396729 C-4.27088213 -0.25786543 -3.4719535 0.00297341 0 0 Z " fill="#9C9C9C" transform="translate(342.78271484375,309.74603271484375)"/>
<path d="M0 0 C0.99128403 -0.00563965 1.98256805 -0.0112793 3.00389099 -0.01708984 C4.09537445 -0.01304138 5.18685791 -0.00899292 6.31141663 -0.00482178 C7.45781113 -0.00832642 8.60420563 -0.01183105 9.78533936 -0.01544189 C13.59104899 -0.02427509 17.3965741 -0.01840399 21.20228577 -0.01165771 C23.83782995 -0.013004 26.4733739 -0.01494422 29.10891724 -0.01745605 C34.63965367 -0.02109753 40.17033673 -0.01629242 45.70106506 -0.0067749 C52.09718988 0.00410466 58.49318715 0.00058848 64.88930887 -0.01042771 C71.03812665 -0.02059459 77.18688784 -0.01952166 83.33571053 -0.01366425 C85.95406169 -0.01232709 88.57241609 -0.01397777 91.19076347 -0.01862335 C94.84695509 -0.02368565 98.50289972 -0.01598199 102.15907288 -0.00482178 C103.2485321 -0.00887024 104.33799133 -0.0129187 105.46046448 -0.01708984 C106.45456833 -0.0114502 107.44867218 -0.00581055 108.47290039 0 C109.33770995 0.00075405 110.20251951 0.0015081 111.09353542 0.002285 C113.29994202 0.25396729 113.29994202 0.25396729 116.29994202 2.25396729 C116.61244202 5.25396729 116.61244202 5.25396729 116.29994202 8.25396729 C113.78911349 10.76479581 112.9880251 10.50657141 109.51722717 10.5146637 C108.50766968 10.5217485 107.49811218 10.52883331 106.45796204 10.53613281 C105.34620605 10.5336554 104.23445007 10.53117798 103.08900452 10.52862549 C101.92149658 10.53373642 100.75398865 10.53884735 99.55110168 10.54411316 C96.34452837 10.55565403 93.13811487 10.55807922 89.93152618 10.55554986 C87.25739478 10.55448195 84.58327748 10.55935881 81.90915108 10.56415528 C75.6025476 10.57525862 69.29600367 10.57568304 62.98939514 10.56964111 C56.47619409 10.5635974 49.96320885 10.57592036 43.45004463 10.59721118 C37.86359336 10.61480339 32.27721093 10.62083239 26.69073296 10.61757344 C23.3516974 10.61575685 20.0127844 10.61843404 16.67378235 10.63228798 C12.95264317 10.64455834 9.23200996 10.63791729 5.51087952 10.62628174 C4.39912354 10.63392548 3.28736755 10.64156921 2.141922 10.64944458 C1.1323645 10.64243027 0.12280701 10.63541595 -0.91734314 10.62818909 C-2.2380632 10.6284407 -2.2380632 10.6284407 -3.58546448 10.6286974 C-4.63218826 10.44320599 -4.63218826 10.44320599 -5.70005798 10.25396729 C-7.70005798 7.25396729 -7.70005798 7.25396729 -7.45005798 4.69146729 C-6.09001711 0.27133446 -4.26838105 0.00372334 0 0 Z " fill="#9A9A9A" transform="translate(343.70005798339844,248.74603271484375)"/>
</svg>
