<?xml version="1.0" standalone="no"?>
<!DOCTYPE svg PUBLIC "-//W3C//DTD SVG 20010904//EN"
 "http://www.w3.org/TR/2001/REC-SVG-20010904/DTD/svg10.dtd">
<svg version="1.0" xmlns="http://www.w3.org/2000/svg"
 width="1536.000000pt" height="1024.000000pt" viewBox="0 0 1536.000000 1024.000000"
 preserveAspectRatio="xMidYMid meet">

<g transform="translate(0.000000,1024.000000) scale(0.100000,-0.100000)"
fill="#000000" stroke="none">
<path d="M3700 8565 c-482 -55 -916 -202 -1260 -428 -427 -282 -688 -643 -791
-1092 -30 -132 -32 -415 -5 -539 69 -311 234 -549 462 -664 59 -30 183 -75
238 -87 l29 -6 -7 -67 c-3 -37 -11 -105 -16 -152 -6 -47 -13 -215 -17 -375 -5
-266 -1 -386 23 -625 l6 -55 -74 -22 c-86 -26 -217 -99 -288 -159 -123 -105
-210 -233 -259 -379 -173 -523 109 -1131 681 -1466 222 -130 524 -229 857
-281 128 -20 183 -23 441 -22 225 0 326 4 425 18 565 76 1100 269 1477 532 43
30 79 54 81 54 2 0 37 -33 78 -72 122 -120 288 -225 446 -281 239 -86 559 -92
789 -13 310 105 546 342 654 656 71 209 90 432 67 784 -9 137 -16 251 -14 252
4 5 203 42 263 50 l51 6 6 -193 c14 -431 107 -778 282 -1039 213 -321 511
-499 865 -517 307 -15 575 85 767 286 l53 55 32 -31 c48 -45 179 -137 288
-201 224 -132 531 -242 855 -306 311 -62 775 -62 1125 -1 375 65 785 236 1059
440 352 262 592 616 696 1025 76 301 71 705 -12 1005 -121 436 -410 799 -830
1040 -79 45 -173 91 -288 141 -32 13 -36 18 -20 21 107 22 258 92 355 163 152
113 253 252 319 442 163 467 31 1035 -338 1457 -219 251 -607 475 -986 571
-135 34 -323 66 -470 80 -142 13 -489 13 -630 0 -705 -66 -1292 -367 -1660
-850 -73 -95 -167 -256 -205 -349 -18 -45 -34 -80 -35 -79 -2 2 -23 55 -48
119 -124 317 -270 546 -468 733 -256 241 -514 346 -847 346 -223 0 -366 -32
-543 -120 -218 -109 -386 -251 -566 -480 -198 -253 -382 -651 -517 -1118 l-33
-114 -6 154 c-14 372 -148 713 -398 1013 -327 392 -842 655 -1444 735 -134 18
-553 21 -695 5z m721 -294 c465 -69 831 -245 1087 -523 287 -310 398 -761 286
-1156 -83 -294 -312 -574 -614 -751 -167 -98 -171 -103 -125 -140 28 -21 105
-41 160 -41 57 0 264 -46 360 -80 383 -136 631 -400 724 -770 125 -494 11
-953 -341 -1376 -141 -169 -333 -327 -565 -465 -171 -102 -257 -144 -453 -222
-445 -177 -852 -257 -1300 -257 -373 0 -643 56 -926 190 -424 201 -682 534
-710 918 -19 262 140 511 384 602 69 26 191 36 259 21 29 -6 59 -8 68 -5 28
11 28 51 1 126 -56 159 -81 436 -73 803 6 276 18 406 66 735 41 274 34 350
-32 350 -52 0 -122 -50 -152 -110 -28 -55 -33 -57 -111 -36 -122 32 -252 129
-341 253 -163 228 -188 606 -61 908 139 329 406 594 793 787 232 116 495 198
764 238 190 28 197 28 471 25 183 -2 279 -8 381 -24z m7506 0 c259 -40 444
-93 629 -181 394 -189 662 -523 729 -908 19 -108 19 -320 1 -409 -35 -163 -95
-280 -196 -382 -302 -305 -894 -271 -1175 68 -97 116 -171 299 -147 365 16 44
15 101 -2 134 -50 96 -228 158 -426 149 -241 -11 -409 -116 -472 -295 -16 -45
-19 -75 -16 -144 4 -78 8 -96 47 -174 117 -235 387 -393 946 -552 77 -22 205
-59 285 -81 265 -73 591 -191 754 -273 100 -50 244 -138 321 -197 81 -62 227
-202 285 -276 309 -389 385 -964 195 -1466 -148 -388 -452 -698 -899 -919
-213 -105 -400 -164 -671 -212 -112 -19 -165 -23 -375 -23 -225 0 -258 2 -404
28 -366 65 -653 178 -947 372 -161 107 -292 231 -372 355 -30 47 -57 95 -61
107 -9 28 -81 93 -104 93 -32 0 -60 -30 -82 -88 -24 -63 -23 -113 5 -195 22
-64 14 -89 -48 -172 -147 -196 -422 -289 -670 -226 -315 81 -571 401 -657 820
-45 220 -64 586 -34 660 30 75 -10 152 -101 192 -168 74 -671 21 -852 -91 -39
-24 -40 -35 -18 -243 8 -77 20 -234 26 -350 10 -186 10 -228 -5 -341 -49 -378
-227 -599 -576 -711 -75 -24 -101 -28 -220 -28 -129 -1 -139 1 -237 34 -132
46 -199 87 -297 181 l-81 77 121 123 c66 68 140 148 165 178 434 527 516 1183
225 1795 -29 61 -72 142 -96 180 -111 180 -110 177 -110 224 0 65 23 196 86
500 228 1094 499 1702 892 2006 296 229 665 297 961 177 208 -85 371 -220 502
-417 97 -145 184 -358 302 -740 266 -859 557 -1996 544 -2125 -3 -25 -21 -92
-42 -150 -60 -170 -58 -333 6 -437 40 -65 124 -83 176 -39 38 32 53 84 53 183
0 155 28 236 113 330 167 182 434 284 705 270 252 -13 436 -126 540 -332 11
-22 39 -105 62 -185 78 -265 143 -393 265 -516 118 -119 227 -164 402 -164
167 0 277 39 381 134 90 84 133 174 139 293 6 102 -6 171 -43 249 -35 75 -132
194 -202 249 -125 99 -478 253 -832 364 -821 257 -1146 421 -1441 728 -201
210 -328 454 -375 723 -21 123 -14 365 15 490 101 439 381 774 842 1006 235
118 538 198 859 228 25 2 164 2 310 1 205 -3 295 -8 397 -24z m-483 -1513 c42
-198 79 -291 146 -372 22 -27 39 -50 37 -53 -4 -3 -49 13 -102 37 -11 5 -58
25 -105 46 -201 88 -267 169 -211 260 38 62 111 101 193 103 31 1 38 -3 42
-21z m-5314 -460 c-30 -122 -92 -391 -110 -483 -12 -60 -23 -111 -25 -113 -2
-2 -29 10 -61 26 -33 16 -87 40 -121 52 -35 12 -63 25 -63 29 0 3 13 12 29 19
46 20 165 143 219 225 40 61 98 182 125 260 11 29 15 19 7 -15z m3762 -840
c43 -36 123 -96 177 -134 55 -38 100 -71 100 -74 1 -3 -32 -18 -72 -34 -39
-16 -102 -46 -138 -66 l-65 -37 -19 86 c-18 85 -75 297 -91 336 -9 23 -20 31
108 -77z m1708 -728 c193 -74 359 -172 415 -245 63 -83 82 -193 46 -270 -83
-179 -310 -144 -416 65 -14 28 -62 135 -106 238 -45 103 -94 210 -110 238
l-29 52 57 -23 c32 -12 96 -37 143 -55z"/>
<path d="M3769 7031 c-48 -10 -117 -33 -154 -51 -68 -32 -155 -102 -155 -124
0 -6 13 -45 29 -86 38 -98 51 -211 51 -446 0 -145 -4 -201 -15 -236 -30 -86
11 -128 128 -136 134 -8 372 63 534 160 31 18 88 65 127 103 115 114 164 241
153 402 -13 200 -114 340 -288 399 -104 35 -287 42 -410 15z m357 -311 c44
-42 57 -77 51 -141 -6 -70 -39 -130 -108 -194 -47 -44 -162 -106 -223 -121
-27 -6 -29 -5 -22 17 4 13 10 76 13 139 5 102 -2 180 -23 282 -6 25 -3 27 48
36 29 6 94 10 145 8 83 -2 95 -5 119 -26z"/>
<path d="M4335 4904 c-174 -26 -394 -105 -509 -182 -65 -45 -83 -112 -45 -177
14 -23 28 -79 40 -163 25 -162 47 -280 61 -314 9 -24 6 -34 -20 -75 -43 -67
-48 -93 -22 -125 37 -48 104 -61 264 -55 146 6 231 22 356 70 294 111 469 286
501 502 20 132 -25 268 -124 373 -97 101 -195 141 -362 147 -60 2 -123 1 -140
-1z m241 -340 c44 -21 64 -60 64 -124 0 -131 -112 -236 -325 -303 -138 -43
-127 -49 -142 73 -6 58 -22 147 -33 198 -12 52 -20 95 -18 97 5 5 207 63 238
68 66 11 183 6 216 -9z"/>
<path d="M7814 6760 c-33 -13 -73 -67 -80 -108 -4 -20 -26 -86 -49 -147 -85
-219 -159 -481 -230 -809 -24 -114 -49 -225 -55 -245 -19 -68 -13 -110 21
-143 l30 -31 92 7 c263 20 377 24 532 19 160 -4 172 -3 203 16 73 47 69 127
-22 456 -85 306 -210 729 -242 821 -31 87 -81 149 -132 164 -43 11 -40 11 -68
0z m122 -978 c35 -123 64 -226 64 -230 0 -4 -58 -8 -129 -9 l-129 -2 13 57
c13 54 89 369 102 422 6 22 7 23 11 5 2 -11 33 -120 68 -243z"/>
</g>
</svg>
